<svg width="312" height="40" viewBox="0 0 312 40" fill="none" xmlns="http://www.w3.org/2000/svg">
<path d="M156.885 14.5055C156.885 15.7848 156.88 16.653 156.885 17.527C156.885 17.7817 156.949 18.019 157.262 18.0364C157.453 18.048 157.638 17.9901 157.748 17.7933C158.003 17.3302 158.275 16.8672 158.529 16.4041C159.328 14.9512 160.497 13.7762 161.487 12.4681C161.574 12.3523 161.684 12.2539 161.8 12.1729C162.28 11.8198 163.397 11.7677 163.698 12.1439C164.167 12.7285 163.785 13.2437 163.432 13.701C162.216 15.2638 160.978 16.8151 159.762 18.3779C159.479 18.7426 158.871 19.1246 159.166 19.5819C159.484 20.0797 160.156 19.8134 160.63 19.6513C161.244 19.443 161.875 19.414 162.483 19.3619C163.831 19.2519 165.18 19.1535 166.517 18.9278C166.893 18.8641 167.293 18.8931 167.675 18.9046C168.439 18.9336 168.821 19.2056 168.792 19.7208C168.763 20.317 168.341 20.5427 167.825 20.6064C166.291 20.7916 164.763 21.0405 163.224 21.1158C161.586 21.1968 159.965 21.5325 158.309 21.411C157.881 21.382 157.383 21.3473 157.221 21.8914C157.053 22.4587 157.395 22.8407 157.858 23.0549C159.739 23.9173 161.192 25.347 162.732 26.661C162.807 26.7246 162.888 26.7767 162.957 26.8404C163.513 27.3556 163.721 28.0617 163.455 28.4901C163.131 29.011 162.13 29.1499 161.481 28.6348C160.654 27.9749 159.924 27.1877 159.126 26.4815C158.576 25.9953 158.043 25.0171 157.314 25.4049C156.799 25.677 157.158 26.7362 157.21 27.4308C157.314 28.8258 157.499 30.215 157.65 31.6042C157.731 32.3567 157.227 32.895 156.359 32.9876C155.606 33.0686 155.184 32.7561 155.103 31.9515C154.923 30.2208 154.888 28.4843 154.9 26.7478C154.9 26.3484 155.137 25.7638 154.582 25.6249C154.113 25.5091 153.847 26.0185 153.615 26.3774C152.949 27.3845 152.342 28.4322 151.67 29.4336C151.12 30.2497 150.599 30.4002 149.83 30.0587C149.077 29.7288 148.903 29.2599 149.395 28.5769C150.298 27.3266 151.248 26.1053 152.203 24.8955C152.677 24.2936 153.198 23.7147 153.731 23.1648C153.997 22.887 154.124 22.586 153.997 22.2503C153.835 21.8335 153.54 21.4689 153.054 21.4631C152.428 21.4515 151.792 21.4631 151.172 21.5557C148.996 21.8972 146.837 21.6715 144.678 21.382C144.348 21.3357 144.012 21.2431 143.705 21.11C143.364 20.9595 142.907 20.7974 143.017 20.317C143.115 19.8829 143.468 19.5356 143.925 19.5008C144.794 19.4314 145.662 19.443 146.524 19.6224C147.809 19.8887 149.112 19.8944 150.414 19.8539C150.634 19.8481 150.952 19.8829 150.981 19.5703C150.999 19.4198 150.842 19.2172 150.709 19.0957C150.188 18.5921 149.627 18.129 149.123 17.6081C148.62 17.0871 148.134 16.543 147.705 15.9642C147.097 15.1423 147.103 14.8355 147.566 14.4766C148.139 14.0367 149.407 14.1351 149.76 14.7255C150.675 16.242 151.983 17.3997 153.204 18.6326C153.407 18.841 153.621 19.0436 153.847 19.2172C154.113 19.4198 154.437 19.7497 154.738 19.5645C155.074 19.3561 154.779 18.951 154.75 18.6326C154.53 16.3809 154.373 14.1235 154.327 11.8545C154.304 10.7952 154.136 9.73598 154.061 8.67672C154.032 8.25417 153.98 7.82005 154.344 7.45538C154.813 6.99232 155.386 6.92286 155.954 7.06757C156.509 7.21227 156.584 7.72165 156.584 8.24259C156.561 10.4711 157.001 12.6764 156.885 14.5055Z" fill="black"/>
<path d="M109.201 28.1938C109.217 26.6528 109.156 25.5497 108.973 24.4521C108.946 24.2747 108.957 24.0585 108.774 23.9754C108.508 23.8534 108.325 24.053 108.192 24.2304C107.371 25.3556 106.523 26.4532 105.564 27.4621C104.611 28.4654 103.663 29.4798 102.676 30.4609C101.917 31.2148 101.451 31.2481 100.731 30.7104C99.8659 30.0729 99.8215 29.635 100.714 29.0031C102.554 27.6893 103.768 25.7936 105.293 24.186C105.958 23.482 106.606 22.7559 107.277 22.0574C107.46 21.869 107.765 21.7193 107.632 21.3867C107.493 21.0486 107.205 21.1539 106.922 21.1927C104.882 21.4532 102.859 21.1483 100.847 20.8878C99.9878 20.777 99.0898 20.91 98.2639 20.461C97.6929 20.1506 97.0111 19.9732 97 19.175C96.9945 18.7426 97.6264 18.6151 98.7018 18.8257C101.34 19.3413 104.034 19.3523 106.695 19.6406C106.978 19.6739 107.244 19.624 107.493 19.4798C107.809 19.2969 107.854 19.0863 107.588 18.8313C107.488 18.7371 107.377 18.6484 107.261 18.5708C104.799 16.9133 102.937 14.685 101.235 12.2958C100.991 11.9577 100.725 11.6362 100.481 11.2981C100.348 11.1096 100.215 10.899 100.365 10.6606C100.531 10.3945 100.775 10.3502 101.085 10.3945C102.039 10.5276 102.854 10.838 103.364 11.7415C104.029 12.9167 104.949 13.9034 105.78 14.9566C106.423 15.7659 107.316 16.2925 107.976 17.0741C108.092 17.2127 108.286 17.2681 108.48 17.1628C108.685 17.0519 108.668 16.8579 108.641 16.6805C108.192 13.2326 108.646 9.74042 108.142 6.29255C108.103 6.02093 108.136 5.73822 108.175 5.46661C108.225 5.22825 108.397 5.05641 108.641 5.01206C109.372 4.89011 110.548 5.71605 110.537 6.43667C110.503 8.23821 110.769 10.0176 110.742 11.8302C110.714 13.6151 110.708 15.4111 110.714 17.2016C110.714 17.3901 110.686 17.5896 110.869 17.6949C111.091 17.828 111.318 17.7781 111.512 17.6173C111.656 17.5009 111.811 17.379 111.906 17.2293C112.953 15.4333 114.683 14.2637 116.035 12.7504C116.412 12.3236 117.915 12.4122 118.303 12.8502C118.602 13.1883 118.48 13.5375 118.247 13.859C117.704 14.6129 117.028 15.2559 116.346 15.8768C115.392 16.7526 114.422 17.6118 113.447 18.4654C113.264 18.6262 113.075 18.7814 113.164 19.0364C113.242 19.2637 113.458 19.3801 113.707 19.4022C113.802 19.4133 113.896 19.43 113.984 19.4189C116.307 19.2304 118.591 19.8401 120.908 19.7792C121.484 19.7625 122.005 19.9067 122.515 20.1339C122.942 20.3224 123.214 20.6162 123.097 21.104C122.992 21.5364 122.637 21.6195 122.233 21.6306C120.986 21.6583 119.76 21.4588 118.524 21.3368C116.967 21.1816 115.409 20.971 113.851 20.8213C113.497 20.788 113.125 20.9211 112.759 20.9044C112.488 20.8934 112.2 20.7326 112.05 21.0818C111.928 21.3756 112.111 21.6306 112.272 21.8468C113.58 23.5874 114.966 25.2614 116.579 26.7359C116.884 27.0186 117.194 27.3069 117.438 27.6394C117.687 27.9831 117.87 28.41 117.488 28.7703C117.133 29.1029 116.662 29.2581 116.207 29.0031C115.852 28.798 115.492 28.5374 115.248 28.2159C114.245 26.8911 112.743 25.9987 111.972 24.4743C111.872 24.2747 111.662 24.1084 111.401 24.1749C111.096 24.2525 111.13 24.5242 111.152 24.7403C111.213 25.339 111.329 25.9266 111.385 26.5253C111.595 28.8756 111.795 31.2204 111.994 33.5707C112.039 34.1139 112.211 34.7292 111.462 34.9509C110.864 35.1283 110.16 34.8124 109.805 34.2026C109.666 33.9698 109.55 33.6926 109.528 33.4321C109.384 31.5474 109.284 29.6516 109.201 28.1938Z" fill="black"/>
<g clip-path="url(#clip0_399_11)">
<path d="M284.218 21.3286C285.639 21.3286 287.057 21.3286 288.479 21.3286C288.645 21.3286 288.812 21.3319 288.982 21.3286C289.115 21.3253 289.275 21.3519 289.341 21.1954C289.418 21.019 289.341 20.8658 289.215 20.746C288.749 20.3065 288.276 19.877 287.81 19.4376C287.387 19.0347 286.974 18.6186 286.548 18.2191C286.238 17.9294 286.129 17.5732 286.155 17.1637C286.172 16.9273 286.248 16.7242 286.491 16.6343C286.691 16.5611 286.874 16.6144 287.024 16.7675C287.104 16.8474 287.187 16.9173 287.264 16.9972C288.256 18.0459 289.251 19.0913 290.237 20.1434C290.443 20.3664 290.603 20.6328 290.816 20.8525C291.156 21.2054 291.542 21.0989 291.692 20.6261C291.725 20.5229 291.738 20.4064 291.728 20.2965C291.599 18.4055 291.902 16.5211 291.858 14.6334C291.845 14.0209 291.842 13.4083 291.852 12.799C291.852 12.6093 291.852 12.4128 291.975 12.2397C292.201 11.9201 292.474 11.9201 292.687 12.2597C292.917 12.6259 292.97 13.0254 292.98 13.4549C293.017 15.256 293.07 17.0605 292.817 18.8516C292.797 18.9815 292.777 19.1579 292.91 19.2278C293.1 19.3277 293.213 19.1479 293.326 19.0381C294.265 18.0926 295.204 17.1437 296.136 16.1915C296.253 16.075 296.329 15.9185 296.489 15.8486C296.842 15.6955 297.089 15.822 297.148 16.2015C297.225 16.7109 297.168 17.167 296.789 17.5898C295.983 18.4787 295.074 19.2545 294.192 20.0568C293.986 20.2433 293.739 20.3897 293.603 20.6394C293.496 20.8359 293.573 20.9857 293.789 20.9724C294.092 20.9557 294.388 20.8492 294.691 20.8425C295.58 20.8192 296.476 20.7759 297.358 20.8392C298.387 20.9124 299.419 20.9025 300.438 21.0057C301.526 21.1155 302.585 20.9757 303.66 20.8991C304.559 20.8359 305.488 20.9191 306.404 20.9224C306.767 20.9224 306.956 21.1422 306.99 21.4984C307.023 21.8746 306.867 22.2175 306.55 22.3041C306.257 22.384 305.941 22.4506 305.645 22.4239C304.586 22.3307 303.534 22.4339 302.479 22.4406C300.504 22.4572 298.533 22.3141 296.562 22.2042C295.457 22.1443 294.342 22.2308 293.237 22.2941C292.651 22.3274 292.484 22.6536 292.83 23.1331C293.187 23.6225 293.659 24.0286 294.062 24.4847C294.572 25.064 295.191 25.5601 295.5 26.3025C295.587 26.5123 295.664 26.7187 295.65 26.9451C295.627 27.3512 295.334 27.531 294.958 27.3779C294.745 27.2913 294.608 27.1382 294.468 26.9517C294.022 26.3491 293.49 25.8164 293.073 25.1872C292.897 24.9209 292.717 24.9642 292.604 25.2505C292.531 25.4336 292.517 25.62 292.501 25.8164C292.384 27.1282 292.501 28.4299 292.617 29.7317C292.664 30.2377 292.591 30.7304 292.584 31.2332C292.584 31.3963 292.517 31.5594 292.471 31.7159C292.388 31.9856 292.185 32.1321 291.912 32.1287C291.662 32.1287 291.499 31.9323 291.432 31.7192C291.332 31.403 291.272 31.0634 291.375 30.7338C291.555 30.1578 291.482 29.5852 291.422 28.9992C291.279 27.5577 291.189 26.1128 291.585 24.6912C291.668 24.3882 291.658 24.0852 291.675 23.7823C291.688 23.5392 291.579 23.3361 291.349 23.2529C291.132 23.173 290.989 23.3295 290.853 23.4726C290.433 23.9154 290.06 24.4015 289.601 24.811C288.872 25.4536 288.146 26.0961 287.367 26.6854C286.861 27.0682 286.425 27.5443 285.989 28.0104C285.786 28.2302 285.616 28.4466 285.296 28.2801C285.007 28.1303 284.78 27.4811 284.897 27.1914C285.05 26.8186 285.333 26.5456 285.626 26.2925C286.405 25.62 287.194 24.9608 287.986 24.305C288.519 23.8588 289.065 23.4294 289.598 22.9832C289.698 22.9 289.834 22.8001 289.754 22.6403C289.681 22.4938 289.521 22.4972 289.388 22.5205C287.903 22.8068 286.392 22.7469 284.903 22.7169C282.959 22.6769 281.011 22.7369 279.067 22.637C278.538 22.6104 278.035 22.4273 277.556 22.1975C277.406 22.1243 277.263 22.0477 277.173 21.8912C276.81 21.2687 276.986 20.8958 277.706 20.7926C278.118 20.736 278.501 20.6794 278.831 21.0955C279.037 21.3552 279.457 21.2554 279.783 21.2587C281.258 21.2687 282.733 21.2653 284.208 21.2653C284.208 21.2853 284.208 21.302 284.208 21.3219L284.218 21.3286Z" fill="black"/>
</g>
<path d="M61.7508 26.326C61.6082 25.0883 61.5806 23.5146 61.6634 21.9363C61.6726 21.7844 61.6726 21.6234 61.6404 21.4761C61.5806 21.1908 61.3735 21.1034 61.125 21.2092C60.918 21.2967 60.7293 21.4393 60.5406 21.5727C58.4332 23.0452 56.3165 24.5131 54.2182 26.0085C53.6568 26.4089 53.1553 26.892 52.6123 27.32C52.0417 27.7709 50.919 27.4488 50.6797 26.7862C50.5831 26.5101 50.7855 26.3629 50.942 26.2018C51.6138 25.5116 52.4743 25.0744 53.2565 24.5315C54.1676 23.9057 55.0971 23.2891 55.9622 22.5989C56.9285 21.8258 57.9454 21.154 59.0636 20.6294C59.2338 20.5512 59.4547 20.4592 59.4271 20.2383C59.3857 19.9208 59.0958 19.9714 58.8795 19.976C56.3441 20.022 53.8041 19.93 51.2733 20.1739C50.5417 20.2383 49.9205 19.9668 49.2763 19.7368C49.083 19.6677 48.9956 19.4929 49.0002 19.2766C49.0048 18.9683 49.2164 18.9177 49.4649 18.8901C49.8837 18.8441 50.2978 18.7658 50.7211 18.7474C53.6338 18.6324 56.542 18.5634 59.4547 18.7152C59.671 18.7244 59.947 18.8119 60.0483 18.5266C60.1403 18.2735 59.9332 18.1032 59.7906 17.9284C58.0789 15.9083 56.4361 13.8239 54.5403 11.9649C53.9882 11.4219 53.5694 10.7777 53.1691 10.1197C53.0034 9.84822 52.8516 9.54452 53.0817 9.26844C53.3117 8.99695 53.6522 9.08898 53.9513 9.1626C54.775 9.36507 55.1983 10.0599 55.6033 10.6903C56.0036 11.3115 56.4591 11.8407 56.9975 12.3468C58.3135 13.5846 59.5789 14.873 60.5406 16.4283C60.7017 16.6906 60.8719 16.9575 61.0836 17.1691C61.2815 17.367 61.5207 17.3302 61.6128 17.0357C61.668 16.8562 61.6726 16.6538 61.6496 16.4651C61.3551 13.7411 61.6174 11.0078 61.5161 8.28372C61.5069 8.09506 61.5115 7.8926 61.5668 7.71314C61.7048 7.2714 62.1649 6.9401 62.5009 7.00912C63.0116 7.11035 63.5454 7.75456 63.4626 8.2147C63.3291 8.94173 63.458 9.65036 63.5178 10.3728C63.6466 11.9787 63.6006 13.5938 63.4303 15.2043C63.4119 15.393 63.3245 15.5816 63.3429 15.7657C63.3705 16.0556 63.3153 16.4375 63.6834 16.5525C63.9917 16.6492 64.162 16.3593 64.3368 16.166C65.8553 14.4589 67.6177 13.0462 69.4813 11.7394C69.9828 11.3851 70.4752 11.017 70.9951 10.6949C71.216 10.5568 71.4967 10.4602 71.7544 10.4556C72.2145 10.4556 72.7299 10.497 72.937 10.994C73.144 11.4955 72.7115 11.7762 72.3848 12.0201C71.6486 12.5723 70.8847 13.0876 70.1255 13.6076C68.6944 14.5877 67.4106 15.7427 66.1222 16.8977C65.6344 17.3348 65.1237 17.7397 64.6267 18.1631C64.4473 18.3149 64.2586 18.4806 64.369 18.7428C64.4611 18.9545 64.6911 18.8947 64.8706 18.9177C65.5332 18.9959 66.1682 18.8073 66.817 18.7336C68.4183 18.5496 70.0058 18.2873 71.6025 18.0802C72.0949 18.0158 72.6011 18.002 73.098 18.0066C74.2576 18.0204 75.3941 17.91 76.5169 17.6063C77.1151 17.4406 77.7409 17.3992 78.3437 17.5741C78.7578 17.6937 79.1443 17.9054 79.0661 18.4529C78.9971 18.9315 78.6566 19.0189 78.2424 19.088C76.1948 19.4239 74.1287 19.5343 72.0581 19.6125C70.7973 19.6585 69.5411 19.8886 68.2941 20.1049C66.9873 20.3257 65.6989 20.3534 64.4013 20.0681C64.2126 20.0266 63.9871 19.976 63.8629 20.1417C63.711 20.3488 63.7939 20.5788 63.9549 20.7675C65.2479 22.2446 66.1636 23.9931 67.4152 25.507C68.2941 26.5699 68.9981 27.7709 69.8034 28.8937C70.2957 29.5793 70.8111 30.2465 71.3357 30.9091C71.6209 31.268 71.851 31.6315 71.4783 32.0273C71.1332 32.3954 70.6776 32.4782 70.2129 32.2481C69.7528 32.0181 69.4399 31.6453 69.15 31.222C67.5349 28.8384 65.8967 26.4733 64.2678 24.0989C64.139 23.9103 64.0101 23.6848 63.7294 23.7906C63.504 23.8735 63.5454 24.1035 63.5454 24.2876C63.55 24.6327 63.5408 24.987 63.6052 25.3229C63.8859 26.7678 63.8399 28.2311 63.8399 29.6897C63.8399 30.3431 63.8813 30.9873 63.9733 31.6407C64.0976 32.5242 63.7847 32.966 63.1405 32.9982C62.4134 33.035 61.783 32.515 61.7692 31.7512C61.7278 30.0394 61.7508 28.3461 61.7508 26.326Z" fill="black"/>
<path d="M235.952 16.9662C237.075 17.1839 238.194 17.4192 239.322 17.6102C240.597 17.8278 241.881 18.0144 243.164 18.2009C243.337 18.2275 243.564 18.2409 243.661 18.0588C243.764 17.8722 243.604 17.6902 243.497 17.5658C242.755 16.6909 242.014 15.8115 241.237 14.9677C240.233 13.8796 239.189 12.8226 238.163 11.7478C237.986 11.5613 237.808 11.3659 237.644 11.166C237.479 10.9706 237.275 10.7619 237.408 10.4776C237.533 10.2111 237.786 10.1801 238.07 10.1801C238.807 10.1801 239.389 10.3577 239.913 10.9795C240.872 12.1075 241.934 13.1557 242.991 14.1949C243.715 14.91 244.186 15.7982 244.79 16.5932C245.083 16.9751 245.358 17.3704 245.651 17.7523C245.771 17.9078 245.953 17.9877 246.144 17.9167C246.344 17.8412 246.379 17.6457 246.384 17.4548C246.388 17.2682 246.411 17.0773 246.384 16.8996C246.069 14.9455 246.255 12.9736 246.153 11.015C246.1 10.0157 246.042 9.01646 246.024 8.01719C246.002 7.07121 246.077 7.00904 246.904 7.00015C247.721 6.99127 248.165 7.36877 248.174 8.05272C248.191 10.3399 248.223 12.6272 248.231 14.9144C248.231 15.283 248.165 15.6516 248.112 16.0158C248.072 16.3001 248.138 16.6021 248.365 16.6998C248.676 16.8286 248.796 16.491 248.902 16.2734C249.511 15.0432 250.221 13.8751 250.994 12.7382C251.536 11.9343 252.206 11.2371 252.744 10.4377C252.97 10.0957 253.317 9.98909 253.69 9.92247C254.174 9.83365 254.622 9.96244 254.862 10.3577C255.102 10.753 254.862 11.1527 254.565 11.4547C252.837 13.2178 251.651 15.3763 250.234 17.3659C250.132 17.5081 249.986 17.6724 250.177 17.85C250.337 17.9966 250.519 17.9344 250.692 17.8456C252.828 16.7486 255.173 16.1002 257.229 14.8345C257.465 14.6923 257.709 14.6568 257.971 14.6479C258.673 14.6168 259.117 14.8345 259.259 15.2919C259.37 15.6472 259.09 15.998 258.437 16.3267C256.847 17.1261 255.182 17.7301 253.517 18.3386C252.579 18.6805 251.647 19.0447 250.714 19.4C250.576 19.4533 250.439 19.511 250.421 19.6843C250.408 19.8619 250.536 19.9685 250.665 20.0218C251.007 20.155 251.363 20.2749 251.718 20.3638C253.401 20.799 255.098 21.1765 256.807 21.4918C257.54 21.6251 258.246 21.8604 258.917 22.1669C259.397 22.3845 259.397 22.5932 259.081 23.0329C258.611 23.6858 257.967 23.557 257.367 23.3882C256.51 23.1484 255.679 22.8464 254.791 22.7043C252.997 22.4156 251.229 22.0203 249.595 21.1765C249.328 21.0388 249.106 20.9855 248.938 21.2875C248.8 21.5318 248.942 21.6917 249.106 21.8649C250.732 23.5881 252.237 25.4312 254.076 26.9501C254.791 27.5408 255.36 28.2824 255.893 29.0419C256.243 29.5393 256.084 29.9479 255.515 30.1566C254.907 30.3787 254.196 30.2232 253.863 29.6192C253.086 28.2158 251.802 27.3009 250.71 26.204C250.11 25.5999 249.471 25.027 249.026 24.2809C248.884 24.0411 248.72 23.6725 248.374 23.8101C248.032 23.9434 248.178 24.3386 248.196 24.6051C248.316 26.1951 248.458 27.785 248.405 29.3839C248.378 30.2721 248.36 31.1648 248.334 32.053C248.316 32.7459 248.085 32.9812 247.397 32.999C246.659 33.0212 246.189 32.6704 246.211 31.9997C246.237 31.1115 246.406 30.2277 246.415 29.3439C246.437 27.3409 246.402 25.3379 246.388 23.3349C246.388 23.0951 246.322 22.8864 246.064 22.8331C245.838 22.7842 245.753 22.9885 245.656 23.1395C245.207 23.859 244.763 24.5874 244.305 25.3068C244.026 25.7465 243.772 26.204 243.435 26.5948C242.516 27.6607 241.57 28.7044 240.766 29.8724C240.557 30.1744 240.277 30.4364 239.997 30.6763C239.598 31.0227 239.154 31.0804 238.661 30.8228C238.101 30.5297 237.919 29.9967 238.39 29.5837C239.012 29.0374 239.442 28.3402 240.015 27.7628C241.192 26.5726 242.116 25.1736 243.137 23.8546C243.204 23.7657 243.266 23.6725 243.324 23.5792C243.399 23.446 243.435 23.2994 243.328 23.1662C243.213 23.0152 243.062 23.0551 242.938 23.1395C242.2 23.6591 241.348 23.9345 240.539 24.2942C239.251 24.8583 237.937 25.369 236.653 25.9464C236.04 26.2217 235.419 26.1329 234.792 26.124C234.424 26.1196 234.104 25.9197 234.051 25.5689C234.002 25.1869 234.33 25.0226 234.664 24.8894C236.76 24.0722 238.869 23.2772 240.943 22.4023C242.369 21.7983 243.741 21.0744 245.132 20.3948C245.22 20.3504 245.318 20.2483 245.331 20.1639C245.358 19.9996 245.234 19.8974 245.078 19.8575C244.865 19.7997 244.647 19.7242 244.43 19.702C242.698 19.5377 240.957 19.4355 239.234 19.2135C237.804 19.0314 236.396 18.7161 234.979 18.4496C234.801 18.4141 234.628 18.3252 234.468 18.232C234.215 18.081 233.931 17.9211 234.015 17.5525C234.086 17.2416 234.344 17.2149 234.615 17.1705C235.054 17.095 235.49 16.984 235.952 16.9662Z" fill="black"/>
<g clip-path="url(#clip1_399_11)">
<path d="M208.929 20.6718C207.761 20.5816 206.593 20.6066 205.419 20.4913C204.517 20.4011 203.59 20.5665 202.672 20.6167C202.507 20.6267 202.316 20.6267 202.231 20.7871C202.111 21.0177 202.276 21.2032 202.436 21.3186C203.384 22.0054 204.342 22.6772 205.299 23.349C206.397 24.1211 207.45 24.9333 208.302 25.9861C208.548 26.2919 208.743 26.6028 208.518 27.0089C208.272 27.4551 207.861 27.4701 207.43 27.44C206.928 27.3999 206.563 27.1192 206.297 26.7331C205.545 25.6352 204.487 24.8932 203.419 24.1512C202.727 23.6749 202.065 23.1635 201.494 22.5469C201.293 22.3313 201.068 22.1007 200.737 22.2811C200.456 22.4315 200.546 22.7123 200.561 22.953C200.652 24.457 200.712 25.9611 200.857 27.4551C200.993 28.8639 200.882 30.2727 200.907 31.6815C200.927 32.6992 200.662 33.0351 200 33C199.208 32.9599 198.466 32.2881 198.591 31.5361C198.787 30.3629 198.616 29.1948 198.696 28.0266C198.777 26.7833 198.526 25.5399 198.686 24.2966C198.701 24.2013 198.606 24.0559 198.521 23.9907C198.365 23.8704 198.18 23.9406 198.075 24.066C197.784 24.4169 197.473 24.7729 197.242 25.1639C196.335 26.693 195.021 27.8762 193.838 29.1697C193.512 29.5257 193.106 29.5607 192.695 29.3903C192.259 29.2098 191.883 28.9341 191.738 28.4578C191.652 28.177 191.863 27.9915 192.038 27.811C192.57 27.2746 193.071 26.7081 193.643 26.2167C194.41 25.5499 195.041 24.7678 195.593 23.9306C196.034 23.2638 196.525 22.6471 197.102 22.0906C197.283 21.9202 197.443 21.7196 197.573 21.5091C197.919 20.9275 197.789 20.6818 197.097 20.6919C195.132 20.7169 193.176 20.6066 191.221 20.4262C190.549 20.366 189.883 20.2657 189.376 19.7594C189.176 19.5588 188.915 19.3482 189.03 19.0073C189.161 18.6263 189.507 18.526 189.842 18.5561C190.76 18.6363 191.667 18.7717 192.58 18.867C193.908 19.0073 195.237 19.1327 196.571 19.253C196.801 19.273 197.117 19.3382 197.187 19.0073C197.237 18.7667 196.987 18.6714 196.826 18.5511C194.565 16.8716 192.55 14.9314 190.73 12.7856C190.539 12.565 190.354 12.3344 190.208 12.0837C189.928 11.6225 190.128 11.2164 190.665 11.2665C191.392 11.3367 192.104 11.3818 192.65 12.0987C194.049 13.9337 195.889 15.3625 197.433 17.0671C197.568 17.2125 197.754 17.3479 197.944 17.403C198.255 17.4933 198.551 17.4431 198.541 17.012C198.531 16.5507 198.526 16.0895 198.471 15.6332C198.2 13.3421 198.245 11.0409 198.31 8.73969C198.315 8.57424 198.36 8.4088 198.385 8.24335C198.591 6.94486 198.892 6.7744 200.13 7.20556C200.531 7.34594 200.802 7.55149 200.712 8.02276C200.276 10.349 200.561 12.7004 200.491 15.0417C200.471 15.6683 200.566 16.3 200.386 16.9167C200.311 17.1624 200.316 17.4381 200.566 17.5885C200.847 17.759 201.068 17.5584 201.198 17.3579C202.381 15.533 204.231 14.2295 205.194 12.2191C205.595 11.3818 205.906 11.3668 206.798 11.8731C207.435 12.2391 207.47 12.5098 207.054 13.307C206.091 15.152 204.728 16.666 203.183 18.0347C202.998 18.2002 202.767 18.3305 202.627 18.531C202.461 18.7717 202.502 19.0224 202.863 19.0525C203.028 19.0675 203.193 18.9973 203.359 18.9973C205.815 18.9773 208.277 18.9572 210.734 18.9472C211.025 18.9472 211.325 18.9071 211.591 19.0775C211.927 19.2881 212.443 19.3583 212.313 19.9449C212.198 20.4713 211.862 20.6919 211.31 20.6718C210.518 20.6518 209.726 20.6718 208.929 20.6718Z" fill="black"/>
</g>
<path d="M20.5775 27.6116C20.4919 29.9705 20.2978 32.1089 20.3834 34.2572C20.3932 34.5007 20.4229 34.7704 20.1202 34.8856C19.7747 35.0172 19.4227 35.0698 19.097 34.8527C18.9194 34.7342 18.9227 34.5467 18.9325 34.3394C18.9786 33.2735 18.9819 32.2043 19.0312 31.1384C19.1431 28.8321 19.2352 26.5292 19.2253 24.2197C19.222 23.6736 19.301 23.1241 19.3339 22.5747C19.3438 22.3839 19.3602 22.1668 19.1595 22.0615C18.9391 21.9431 18.8108 22.1372 18.6693 22.2556C17.2481 23.4268 15.8301 24.598 14.4089 25.7692C13.6259 26.4173 12.7936 27.003 12.0533 27.7037C11.6618 28.0755 11.2144 28.0689 10.8525 27.786C10.5202 27.526 10.4906 27.2332 10.813 26.9701C11.494 26.4173 12.1849 25.8745 12.8955 25.3613C13.4318 24.9764 13.9154 24.5257 14.4089 24.1013C15.3696 23.2788 16.3664 22.5122 17.3764 21.7588C17.4619 21.693 17.5672 21.6371 17.6231 21.5516C17.7087 21.4233 17.6955 21.2851 17.5212 21.2357C17.4192 21.2061 17.304 21.2028 17.1955 21.2061C16.0604 21.2456 14.9682 20.9561 13.8628 20.7752C13.1357 20.6534 12.3823 20.7225 11.6454 20.66C10.5038 20.5646 9.36547 20.4429 8.22716 20.3014C7.87843 20.2586 7.52312 20.1731 7.21387 19.979C6.92436 19.7981 6.93094 19.5184 7.22045 19.3375C7.39811 19.2256 7.58892 19.2618 7.77974 19.2421C8.58247 19.1598 9.36876 19.344 10.1419 19.4855C11.5829 19.7487 13.0436 19.6895 14.4813 19.9C15.3235 20.0218 16.1558 20.1896 16.9948 20.3343C17.1823 20.3672 17.3731 20.4001 17.5639 20.4067C17.9456 20.4231 18.0377 20.2915 17.8238 19.9856C17.4455 19.446 17.0375 18.9262 16.6329 18.4064C15.8236 17.3668 14.9978 16.3371 14.1951 15.2909C13.9286 14.9454 13.7016 14.5671 13.4811 14.1888C13.3693 13.9979 13.3101 13.738 13.4515 13.5604C13.5897 13.3893 13.8332 13.3729 14.0635 13.409C14.4056 13.465 14.7214 13.5834 14.8695 13.9091C15.5604 15.4422 16.8862 16.5081 17.7876 17.8833C18.1791 18.4788 18.5805 19.0677 18.9687 19.6665C19.0641 19.8145 19.1562 19.9461 19.3536 19.8737C19.505 19.8178 19.5313 19.6697 19.5214 19.5316C19.4787 18.9854 19.3832 18.436 19.3931 17.8932C19.4227 16.5476 19.4721 15.202 19.5708 13.8598C19.6662 12.5964 19.7057 11.3364 19.7122 10.0698C19.7188 8.77686 19.7122 7.48392 19.7155 6.19099C19.7155 6.05281 19.7089 5.91463 19.7188 5.77975C19.7583 5.19743 19.8899 4.99675 20.2353 5.00004C20.7946 5.00333 21.1598 5.29942 21.1499 5.80936C21.1368 6.52327 21.1532 7.23389 21.094 7.95109C21.0282 8.74067 21.1302 9.54011 21.1401 10.3396C21.1598 11.9056 21.0052 13.465 20.9131 15.0277C20.8538 16.0706 20.8999 17.1168 20.7321 18.1531C20.7058 18.3077 20.7782 18.436 20.9098 18.492C21.0085 18.5347 21.1137 18.4525 21.196 18.3735C21.3539 18.2189 21.5184 18.0741 21.6664 17.9096C22.9002 16.5345 24.3477 15.3896 25.6999 14.1394C25.9795 13.8795 26.3085 13.6689 26.6079 13.4321C26.927 13.1788 27.2132 13.2544 27.4929 13.5045C27.8416 13.8137 27.8646 13.9881 27.4962 14.2973C25.6209 15.8666 23.897 17.6004 22.1237 19.2782C21.7882 19.5974 21.3901 19.854 21.0216 20.1402C20.9098 20.229 20.8176 20.3475 20.8703 20.4955C20.9196 20.6304 21.0381 20.7094 21.1861 20.7192C21.3769 20.7291 21.571 20.7324 21.7618 20.739C23.3805 20.8081 24.986 20.9364 26.5914 21.1864C27.8909 21.3904 29.2135 21.443 30.5262 21.5516C30.8255 21.5779 31.1315 21.5384 31.421 21.6667C31.602 21.7457 31.7829 21.8444 31.7698 22.0747C31.7533 22.3412 31.6151 22.5517 31.3421 22.6142C31.1841 22.6504 31.0131 22.6471 30.8519 22.6274C29.4339 22.476 28.0291 22.2392 26.6013 22.1668C25.6209 22.1174 24.6537 21.8773 23.67 21.7687C22.8804 21.6799 22.0744 21.7884 21.2947 21.5647C21.1006 21.5088 20.8374 21.4463 20.7058 21.6996C20.5906 21.92 20.686 22.1372 20.8374 22.3083C21.4559 23.0156 21.877 23.8611 22.4264 24.6145C22.9758 25.3712 23.5022 26.1443 24.0779 26.8779C24.6405 27.5951 24.9399 28.4735 25.5617 29.1546C25.7558 29.3684 25.7854 29.6645 25.6209 29.9277C25.4531 30.1942 25.1735 30.0856 24.9399 30.0757C24.5385 30.0626 24.3017 29.7698 24.101 29.4737C23.8707 29.1315 23.6766 28.7663 23.4759 28.4077C22.7324 27.0885 21.7355 25.937 20.9723 24.6309C20.9163 24.5355 20.8308 24.4204 20.7222 24.45C20.5742 24.4895 20.5479 24.6441 20.5479 24.7856C20.5479 25.3086 20.5216 25.8317 20.5577 26.3516C20.5972 26.8417 20.5841 27.3352 20.5775 27.6116Z" fill="black"/>
<defs>
<clipPath id="clip0_399_11">
<rect width="20.1354" height="30" fill="white" transform="translate(307 12) rotate(90)"/>
</clipPath>
<clipPath id="clip1_399_11">
<rect width="23.3378" height="26" fill="white" transform="translate(189 7)"/>
</clipPath>
</defs>
</svg>
